<?xml version="1.0" encoding="utf-8"?>
<!-- Generator: Adobe Illustrator 21.0.2, SVG Export Plug-In . SVG Version: 6.00 Build 0)  -->
<svg version="1.1" id="Layer_1" xmlns="http://www.w3.org/2000/svg" xmlns:xlink="http://www.w3.org/1999/xlink" x="0px" y="0px"
	 viewBox="0 0 306.3 114.3" style="enable-background:new 0 0 306.3 114.3;" xml:space="preserve">
<style type="text/css">
	.st0{fill:#FFFFFF;}
</style>
<g>
	<path class="st0" d="M143,75.1c0,15-12.2,25-26.7,25c-14.7,0-26.9-10-26.9-25c0-14.9,12.2-24.9,26.9-24.9
		C130.8,50.2,143,60.2,143,75.1z M128.1,75.1c0-7.4-5.7-12.3-11.7-12.3c-6.3,0-12,4.9-12,12.3c0,7.4,5.7,12.3,12,12.3
		C122.4,87.4,128.1,82.6,128.1,75.1z"/>
	<path class="st0" d="M202.7,98.7h-15.5v-3.8c-3.8,3.3-8.8,5.2-15.1,5.2c-12.9,0-23.7-10.1-23.7-25.1c0-14.9,10.9-25.1,23.7-25.1
		c6.3,0,11.3,1.9,15.1,5.2v-3.8h15.5V98.7z M187.2,75c0-7.3-5.6-12.3-11.9-12.3c-6.8,0-11.7,5-11.7,12.3c0,7.4,4.9,12.3,11.7,12.3
		C181.6,87.3,187.2,82.4,187.2,75z"/>
	<path class="st0" d="M292.2,98.7h-15.5v-3.8c-3.8,3.3-8.8,5.2-15.1,5.2c-12.9,0-23.7-10.1-23.7-25.1c0-14.9,10.9-25.1,23.7-25.1
		c6.3,0,11.3,1.9,15.1,5.2v-3.8h15.5V98.7z M276.7,75c0-7.3-5.6-12.3-11.9-12.3c-6.8,0-11.7,5-11.7,12.3c0,7.4,4.9,12.3,11.7,12.3
		C271,87.3,276.7,82.4,276.7,75z"/>
	<path class="st0" d="M250,25c-0.9-0.2-1.5,1-0.9,1.6l10.4,5.4l-13.2,5l4.2,9.1l26.4-9.4c0.7-0.2,1.4-0.6,1.9-1.1l0,0
		c2.9-2.7,2-7.5-1.7-8.9l-0.3-0.1c-0.5-0.2-1.1-0.3-1.6-0.3L250,25z"/>
	<path class="st0" d="M226.1,14.2h-10.5h-5h-9c-0.7,0-0.9,0.9-0.3,1.2l9.3,7.7v61.5v6.8c0,4,3.2,7.2,7.2,7.2h8.3h7.9v-14h-7.9V14.2z
		"/>
	<path class="st0" d="M86.7,14.2H65.5c4.8,3.9,17,16.6,5.6,39c-5.4,10.6-9.6,18.5-12.9,24.4L39.6,35.4h-17h-7.9
		c-0.7,0-0.9,0.9-0.3,1.2l12.1,10l23,52H65c2.4-3.8,9-14.8,20.8-38C95.7,41.2,93,25.3,86.7,14.2z"/>
</g>
</svg>
